<svg xmlns="http://www.w3.org/2000/svg" viewBox="0 0 1600 1000" width="1600" height="1000">
  <defs>
    <linearGradient id="w" x1="0" y1="0" x2="0" y2="1"><stop offset="0" stop-color="#5673F4"/><stop offset=".45" stop-color="#2448ED"/><stop offset="1" stop-color="#0E1A6E"/></linearGradient>
    <radialGradient id="sun" cx=".5" cy=".5" r=".5"><stop offset="0" stop-color="#FFC2AE" stop-opacity=".95"/><stop offset=".45" stop-color="#F79A83" stop-opacity=".45"/><stop offset="1" stop-color="#F79A83" stop-opacity="0"/></radialGradient>
    <linearGradient id="path" x1="0" y1="0" x2="0" y2="1"><stop offset="0" stop-color="#FFC2AE" stop-opacity=".55"/><stop offset="1" stop-color="#FFC2AE" stop-opacity="0"/></linearGradient>
    <filter id="soft"><feGaussianBlur stdDeviation="22"/></filter>
    <filter id="grain" x="0" y="0" width="100%" height="100%"><feTurbulence type="fractalNoise" baseFrequency=".85" numOctaves="2" stitchTiles="stitch" result="t"/><feColorMatrix in="t" values="0 0 0 0 1  0 0 0 0 1  0 0 0 0 1  0 0 0 .55 0"/></filter>
  </defs>
  <rect width="1600" height="1000" fill="url(#w)"/>
  <ellipse cx="1180" cy="190" rx="520" ry="330" fill="url(#sun)"/>
  <path d="M1080 150 L1280 150 L1420 1000 L940 1000 Z" fill="url(#path)" filter="url(#soft)" opacity=".7"/>
  <rect x="1205" y="408" width="91" height="2.7" rx="2" fill="#FFE3D8" fill-opacity="0.25"/>
  <rect x="1250" y="683" width="122" height="3.8" rx="2" fill="#FFE3D8" fill-opacity="0.36"/>
  <rect x="1369" y="240" width="62" height="2.0" rx="2" fill="#FFE3D8" fill-opacity="0.18"/>
  <rect x="1458" y="406" width="93" height="2.7" rx="2" fill="#FFE3D8" fill-opacity="0.25"/>
  <rect x="1167" y="857" width="192" height="4.5" rx="2" fill="#FFE3D8" fill-opacity="0.43"/>
  <rect x="1256" y="343" width="87" height="2.5" rx="2" fill="#FFE3D8" fill-opacity="0.23"/>
  <rect x="1315" y="622" width="144" height="3.6" rx="2" fill="#FFE3D8" fill-opacity="0.34"/>
  <rect x="1325" y="278" width="70" height="2.2" rx="2" fill="#FFE3D8" fill-opacity="0.20"/>
  <rect x="917" y="456" width="114" height="2.9" rx="2" fill="#FFE3D8" fill-opacity="0.27"/>
  <rect x="1303" y="585" width="145" height="3.4" rx="2" fill="#FFE3D8" fill-opacity="0.32"/>
  <rect x="1416" y="766" width="156" height="4.1" rx="2" fill="#FFE3D8" fill-opacity="0.39"/>
  <rect x="1149" y="831" width="209" height="4.4" rx="2" fill="#FFE3D8" fill-opacity="0.42"/>
  <rect x="955" y="889" width="156" height="4.6" rx="2" fill="#FFE3D8" fill-opacity="0.44"/>
  <rect x="1441" y="393" width="90" height="2.7" rx="2" fill="#FFE3D8" fill-opacity="0.25"/>
  <rect x="1069" y="700" width="151" height="3.9" rx="2" fill="#FFE3D8" fill-opacity="0.37"/>
  <rect x="1097" y="519" width="119" height="3.2" rx="2" fill="#FFE3D8" fill-opacity="0.30"/>
  <rect x="1406" y="668" width="154" height="3.8" rx="2" fill="#FFE3D8" fill-opacity="0.36"/>
  <rect x="1380" y="927" width="238" height="4.8" rx="2" fill="#FFE3D8" fill-opacity="0.46"/>
  <rect x="991" y="733" width="180" height="4.0" rx="2" fill="#FFE3D8" fill-opacity="0.38"/>
  <rect x="1407" y="953" width="205" height="4.9" rx="2" fill="#FFE3D8" fill-opacity="0.47"/>
  <rect x="1018" y="765" width="186" height="4.1" rx="2" fill="#FFE3D8" fill-opacity="0.39"/>
  <rect x="1060" y="660" width="119" height="3.7" rx="2" fill="#FFE3D8" fill-opacity="0.35"/>
  <rect x="1454" y="870" width="149" height="4.6" rx="2" fill="#FFE3D8" fill-opacity="0.44"/>
  <rect x="1130" y="830" width="148" height="4.4" rx="2" fill="#FFE3D8" fill-opacity="0.42"/>
  <rect x="1331" y="450" width="113" height="2.9" rx="2" fill="#FFE3D8" fill-opacity="0.27"/>
  <rect x="1244" y="263" width="64" height="2.1" rx="2" fill="#FFE3D8" fill-opacity="0.19"/>
  <rect x="1085" y="769" width="190" height="4.2" rx="2" fill="#FFE3D8" fill-opacity="0.40"/>
  <rect x="1183" y="965" width="248" height="4.9" rx="2" fill="#FFE3D8" fill-opacity="0.47"/>
  <rect x="943" y="462" width="108" height="2.9" rx="2" fill="#FFE3D8" fill-opacity="0.27"/>
  <rect x="1011" y="254" width="64" height="2.1" rx="2" fill="#FFE3D8" fill-opacity="0.19"/>
  <rect x="987" y="688" width="121" height="3.8" rx="2" fill="#FFE3D8" fill-opacity="0.36"/>
  <rect x="1076" y="881" width="223" height="4.6" rx="2" fill="#FFE3D8" fill-opacity="0.44"/>
  <rect x="1112" y="902" width="186" height="4.7" rx="2" fill="#FFE3D8" fill-opacity="0.45"/>
  <rect x="1261" y="620" width="140" height="3.6" rx="2" fill="#FFE3D8" fill-opacity="0.34"/>
  <rect x="1247" y="649" width="164" height="3.7" rx="2" fill="#FFE3D8" fill-opacity="0.35"/>
  <rect x="1141" y="610" width="144" height="3.5" rx="2" fill="#FFE3D8" fill-opacity="0.33"/>
  <rect x="1069" y="408" width="105" height="2.7" rx="2" fill="#FFE3D8" fill-opacity="0.25"/>
  <rect x="1207" y="621" width="111" height="3.6" rx="2" fill="#FFE3D8" fill-opacity="0.34"/>
  <rect x="1225" y="541" width="101" height="3.2" rx="2" fill="#FFE3D8" fill-opacity="0.30"/>
  <rect x="1254" y="692" width="123" height="3.8" rx="2" fill="#FFE3D8" fill-opacity="0.36"/>
  <rect x="1161" y="701" width="161" height="3.9" rx="2" fill="#FFE3D8" fill-opacity="0.37"/>
  <rect x="1296" y="494" width="119" height="3.1" rx="2" fill="#FFE3D8" fill-opacity="0.29"/>
  <rect x="934" y="247" width="64" height="2.1" rx="2" fill="#FFE3D8" fill-opacity="0.19"/>
  <rect x="1041" y="952" width="195" height="4.9" rx="2" fill="#FFE3D8" fill-opacity="0.47"/>
  <rect x="1079" y="675" width="138" height="3.8" rx="2" fill="#FFE3D8" fill-opacity="0.36"/>
  <rect x="1107" y="465" width="108" height="2.9" rx="2" fill="#FFE3D8" fill-opacity="0.27"/>
  <rect x="607" y="598" width="78" height="3.4" rx="2" fill="#FFFFFF" fill-opacity="0.32"/>
  <rect x="50" y="893" width="134" height="4.6" rx="2" fill="#FFFFFF" fill-opacity="0.44"/>
  <rect x="163" y="916" width="141" height="4.7" rx="2" fill="#FFFFFF" fill-opacity="0.45"/>
  <rect x="102" y="710" width="101" height="3.8" rx="2" fill="#FFFFFF" fill-opacity="0.36"/>
  <rect x="727" y="774" width="127" height="4.1" rx="2" fill="#FFFFFF" fill-opacity="0.39"/>
  <rect x="402" y="375" width="53" height="2.5" rx="2" fill="#FFFFFF" fill-opacity="0.23"/>
  <rect x="1444" y="630" width="98" height="3.5" rx="2" fill="#FFFFFF" fill-opacity="0.33"/>
  <rect x="623" y="825" width="137" height="4.3" rx="2" fill="#FFFFFF" fill-opacity="0.41"/>
  <rect x="483" y="334" width="52" height="2.3" rx="2" fill="#FFFFFF" fill-opacity="0.21"/>
  <rect x="681" y="790" width="97" height="4.2" rx="2" fill="#FFFFFF" fill-opacity="0.40"/>
  <rect x="359" y="455" width="65" height="2.8" rx="2" fill="#FFFFFF" fill-opacity="0.26"/>
  <rect x="343" y="851" width="150" height="4.4" rx="2" fill="#FFFFFF" fill-opacity="0.42"/>
  <rect x="123" y="902" width="127" height="4.6" rx="2" fill="#FFFFFF" fill-opacity="0.44"/>
  <rect x="76" y="619" width="90" height="3.5" rx="2" fill="#FFFFFF" fill-opacity="0.33"/>
  <rect x="210" y="922" width="144" height="4.7" rx="2" fill="#FFFFFF" fill-opacity="0.45"/>
  <rect x="920" y="348" width="57" height="2.4" rx="2" fill="#FFFFFF" fill-opacity="0.22"/>
  <rect x="53" y="408" width="56" height="2.6" rx="2" fill="#FFFFFF" fill-opacity="0.24"/>
  <rect x="67" y="654" width="82" height="3.6" rx="2" fill="#FFFFFF" fill-opacity="0.34"/>
  <rect x="1440" y="623" width="91" height="3.5" rx="2" fill="#FFFFFF" fill-opacity="0.33"/>
  <rect x="1011" y="551" width="71" height="3.2" rx="2" fill="#FFFFFF" fill-opacity="0.30"/>
  <rect x="302" y="683" width="107" height="3.7" rx="2" fill="#FFFFFF" fill-opacity="0.35"/>
  <rect x="122" y="960" width="147" height="4.9" rx="2" fill="#FFFFFF" fill-opacity="0.47"/>
  <rect x="267" y="703" width="95" height="3.8" rx="2" fill="#FFFFFF" fill-opacity="0.36"/>
  <rect x="1557" y="986" width="120" height="5.0" rx="2" fill="#FFFFFF" fill-opacity="0.48"/>
  <rect x="1485" y="775" width="103" height="4.1" rx="2" fill="#FFFFFF" fill-opacity="0.39"/>
  <rect x="105" y="706" width="100" height="3.8" rx="2" fill="#FFFFFF" fill-opacity="0.36"/>
  <rect x="937" y="752" width="126" height="4.0" rx="2" fill="#FFFFFF" fill-opacity="0.38"/>
  <rect x="568" y="323" width="52" height="2.3" rx="2" fill="#FFFFFF" fill-opacity="0.21"/>
  <rect x="726" y="686" width="99" height="3.8" rx="2" fill="#FFFFFF" fill-opacity="0.36"/>
  <rect x="913" y="980" width="112" height="5.0" rx="2" fill="#FFFFFF" fill-opacity="0.48"/>
  <rect x="540" y="844" width="123" height="4.4" rx="2" fill="#FFFFFF" fill-opacity="0.42"/>
  <rect x="715" y="416" width="60" height="2.6" rx="2" fill="#FFFFFF" fill-opacity="0.24"/>
  <rect x="997" y="325" width="47" height="2.3" rx="2" fill="#FFFFFF" fill-opacity="0.21"/>
  <rect x="79" y="832" width="141" height="4.4" rx="2" fill="#FFFFFF" fill-opacity="0.42"/>
  <rect x="796" y="850" width="139" height="4.4" rx="2" fill="#FFFFFF" fill-opacity="0.42"/>
  <rect x="1161" y="441" width="65" height="2.7" rx="2" fill="#FFFFFF" fill-opacity="0.25"/>
  <rect x="1505" y="429" width="63" height="2.7" rx="2" fill="#FFFFFF" fill-opacity="0.25"/>
  <rect x="1347" y="532" width="77" height="3.1" rx="2" fill="#FFFFFF" fill-opacity="0.29"/>
  <rect x="300" y="747" width="129" height="4.0" rx="2" fill="#FFFFFF" fill-opacity="0.38"/>
  <rect x="117" y="449" width="77" height="2.8" rx="2" fill="#FFFFFF" fill-opacity="0.26"/>
  <ellipse cx="640" cy="700" rx="90" ry="23" fill="none" stroke="#FFFFFF" stroke-opacity="0.55" stroke-width="2.2"/>
  <ellipse cx="640" cy="700" rx="185" ry="48" fill="none" stroke="#FFFFFF" stroke-opacity="0.50" stroke-width="2.2"/>
  <ellipse cx="640" cy="700" rx="280" ry="73" fill="none" stroke="#FFFFFF" stroke-opacity="0.44" stroke-width="2.2"/>
  <ellipse cx="640" cy="700" rx="375" ry="98" fill="none" stroke="#FFFFFF" stroke-opacity="0.39" stroke-width="2.2"/>
  <ellipse cx="640" cy="700" rx="470" ry="122" fill="none" stroke="#FFFFFF" stroke-opacity="0.33" stroke-width="2.2"/>
  <ellipse cx="640" cy="700" rx="565" ry="147" fill="none" stroke="#FFFFFF" stroke-opacity="0.28" stroke-width="2.2"/>
  <ellipse cx="640" cy="700" rx="660" ry="172" fill="none" stroke="#FFFFFF" stroke-opacity="0.22" stroke-width="2.2"/>
  <ellipse cx="640" cy="700" rx="755" ry="196" fill="none" stroke="#FFFFFF" stroke-opacity="0.17" stroke-width="2.2"/>
  <ellipse cx="640" cy="700" rx="850" ry="221" fill="none" stroke="#FFFFFF" stroke-opacity="0.11" stroke-width="2.2"/>
  <rect width="1600" height="1000" filter="url(#grain)" opacity=".16"/>
</svg>
